<svg width="321" height="80" viewBox="0 0 321 80" fill="#f76659" xmlns="http://www.w3.org/2000/svg">
<path fill-rule="evenodd" clip-rule="evenodd" d="M88.5 0.5C90.335 1.122 91.502 2.456 92 4.5C97 16.5 102 28.5 107 40.5C108.42 42.422 110.253 43.755 112.5 44.5C107.5 45.833 102.5 45.833 97.5 44.5C99.272 43.73 100.272 42.397 100.5 40.5C99.093 37.279 98.093 33.945 97.5 30.5C91.833 30.5 86.1667 30.5 80.5 30.5C78.8867 34.677 77.8867 39.011 77.5 43.5C78.675 43.281 79.675 43.614 80.5 44.5C72.6852 45.968 65.0185 45.468 57.5 43C52.3556 36.355 47.0223 29.855 41.5 23.5C46.3086 16.857 51.3086 10.357 56.5 4C55.6721 3.085 54.6721 2.419 53.5 2C58.1667 1.333 62.8333 1.333 67.5 2C65.6228 3.185 63.6228 4.185 61.5 5C56.4421 10.387 51.7754 16.053 47.5 22C52.7782 28.949 58.4449 35.616 64.5 42C68.119 44.241 70.9523 43.408 73 39.5C78.2743 26.504 83.441 13.504 88.5 0.5ZM88.5 10.5C91.198 15.566 93.532 20.9 95.5 26.5C91.167 27.833 86.8333 27.833 82.5 26.5C85.0693 21.365 87.0693 16.031 88.5 10.5Z" />
<path fill-rule="evenodd" clip-rule="evenodd" d="M117.5 0.5C120.731 2.22 123.564 4.553 126 7.5C134.333 16.5 142.667 25.5 151 34.5C151.667 24.833 151.667 15.167 151 5.5C149.782 3.981 148.282 2.814 146.5 2C150.833 1.333 155.167 1.333 159.5 2C157.43 2.948 155.93 4.448 155 6.5C154.676 19.549 154.509 32.549 154.5 45.5C143.512 34.345 132.679 23.011 122 11.5C121.333 21.5 121.333 31.5 122 41.5C123.307 42.772 124.807 43.772 126.5 44.5C122.167 45.833 117.833 45.833 113.5 44.5C114.328 43.585 115.328 42.919 116.5 42.5C117.499 28.516 117.833 14.516 117.5 0.5Z" />
<path fill-rule="evenodd" clip-rule="evenodd" d="M217.5 0.5C219.335 1.122 220.502 2.456 221 4.5C226 16.5 231 28.5 236 40.5C237.42 42.422 239.253 43.755 241.5 44.5C236.5 45.833 231.5 45.833 226.5 44.5C228.272 43.73 229.272 42.397 229.5 40.5C228.093 37.279 227.093 33.945 226.5 30.5C220.833 30.5 215.167 30.5 209.5 30.5C207.887 34.677 206.887 39.011 206.5 43.5C207.675 43.281 208.675 43.614 209.5 44.5C204.833 45.833 200.167 45.833 195.5 44.5C198.088 43.416 200.255 41.749 202 39.5C207.274 26.504 212.441 13.504 217.5 0.5ZM217.5 10.5C220.198 15.566 222.532 20.9 224.5 26.5C220.167 27.833 215.833 27.833 211.5 26.5C214.069 21.365 216.069 16.031 217.5 10.5Z" />
<path fill-rule="evenodd" clip-rule="evenodd" d="M246.5 0.5C249.731 2.22 252.564 4.553 255 7.5C263.333 16.5 271.667 25.5 280 34.5C280.667 24.833 280.667 15.167 280 5.5C278.782 3.981 277.282 2.814 275.5 2C279.833 1.333 284.167 1.333 288.5 2C286.43 2.948 284.93 4.448 284 6.5C283.676 19.549 283.509 32.549 283.5 45.5C272.512 34.345 261.679 23.011 251 11.5C250.333 21.5 250.333 31.5 251 41.5C252.307 42.772 253.807 43.772 255.5 44.5C251.167 45.833 246.833 45.833 242.5 44.5C243.328 43.585 244.328 42.919 245.5 42.5C246.499 28.516 246.833 14.516 246.5 0.5Z" />
<path fill-rule="evenodd" clip-rule="evenodd" d="M30.5 2.49998C35.3158 1.34998 40.3158 1.18398 45.5 1.99998C43.7183 2.81398 42.2183 3.98098 41 5.49998C40.3333 17.5 40.3333 29.5 41 41.5C42.3068 42.772 43.8068 43.772 45.5 44.5C43.1667 44.833 40.8333 45.167 38.5 45.5C35.6364 45.614 32.9698 45.114 30.5 44C32.3289 43.727 33.8289 42.893 35 41.5C35.6667 29.167 35.6667 16.833 35 4.49998C33.6703 3.41798 32.1703 2.75098 30.5 2.49998Z" />
<path fill-rule="evenodd" clip-rule="evenodd" d="M163.5 2.5C169.653 1.347 175.986 1.18 182.5 2C188.926 4.253 191.426 8.753 190 15.5C188.878 17.624 187.378 19.457 185.5 21C191.311 23.114 194.311 27.281 194.5 33.5C193.217 41.323 188.55 45.156 180.5 45C175.136 45.829 169.802 45.663 164.5 44.5C165.76 43.618 166.926 42.618 168 41.5C168.667 29.167 168.667 16.833 168 4.5C166.67 3.418 165.17 2.751 163.5 2.5ZM173.5 4.5C182.152 3.986 185.652 7.986 184 16.5C181.65 19.651 178.484 21.317 174.5 21.5C182.173 21.52 186.84 25.187 188.5 32.5C188.373 35.387 187.373 37.887 185.5 40C181.637 41.354 177.637 41.854 173.5 41.5C173.5 29.167 173.5 16.833 173.5 4.5Z" />
<path fill-rule="evenodd" clip-rule="evenodd" d="M15.5 73.5C24.294 73.534 32.9606 74.534 41.5 76.5C48.3064 75.44 55.1397 74.44 62 73.5C68.7992 74.742 75.6325 75.742 82.5 76.5C89.0061 75.611 95.506 74.611 102 73.5C108.644 74.716 115.311 75.716 122 76.5C128.689 75.716 135.356 74.716 142 73.5C148.333 74.5 154.667 75.5 161 76.5C166.81 75.423 172.643 74.423 178.5 73.5C185.372 74.592 192.205 75.926 199 77.5C205.584 75.75 212.251 74.416 219 73.5C225.895 74.521 232.728 75.854 239.5 77.5C245.893 75.647 252.393 74.313 259 73.5C265.749 74.416 272.416 75.75 279 77.5C285.584 75.75 292.251 74.416 299 73.5C306.335 74.445 313.501 76.112 320.5 78.5C319.167 78.833 317.833 79.167 316.5 79.5C310.705 78.259 304.872 77.259 299 76.5C292.506 77.611 286.006 78.611 279.5 79.5C272.633 78.742 265.799 77.742 259 76.5C252.57 77.898 246.07 78.898 239.5 79.5C232.633 78.742 225.799 77.742 219 76.5C212.201 77.742 205.367 78.742 198.5 79.5C191.994 78.611 185.494 77.611 179 76.5C172.667 77.5 166.333 78.5 160 79.5C154.036 78.343 148.036 77.343 142 76.5C135.356 77.716 128.689 78.716 122 79.5C115.311 78.716 108.644 77.716 102 76.5C95.57 77.898 89.0699 78.898 82.5 79.5C75.6325 78.742 68.7992 77.742 62 76.5C55.2008 77.742 48.3675 78.742 41.5 79.5C34.9301 78.898 28.4301 77.898 22 76.5C14.8837 77.905 7.717 78.905 0.5 79.5C0.5 78.5 0.5 77.5 0.5 76.5C5.8941 76.876 10.8941 75.876 15.5 73.5Z" />
</svg>
